<?xml version="1.0" encoding="utf-8"?>
<!-- Generator: Adobe Illustrator 27.7.0, SVG Export Plug-In . SVG Version: 6.00 Build 0)  -->
<svg version="1.1" id="Layer_1" xmlns="http://www.w3.org/2000/svg" xmlns:xlink="http://www.w3.org/1999/xlink" x="0px" y="0px"
	 viewBox="0 0 357.8 406.8" style="enable-background:new 0 0 357.8 406.8;" xml:space="preserve">
<style type="text/css">
	.st0{fill:#FFFFFF;}
	.st1{fill:#231F20;}
	.st2{fill:#F8F3E5;}
	.st3{fill:#DB916B;}
	.st4{fill:#1C2532;}
	.st5{fill:#FBF3DE;}
	.st6{fill:#FBF3DE;stroke:#B3C1C5;stroke-width:1.049;stroke-miterlimit:10;}
	.st7{fill:none;stroke:#FBF3DE;stroke-width:0.5633;stroke-linecap:round;stroke-linejoin:round;stroke-miterlimit:10;}
	.st8{fill:#9B7E3F;}
	.st9{fill:#B3C1C5;}
	.st10{fill:#E9EAE5;}
	.st11{opacity:0.5;fill:#E9EAE5;}
	.st12{fill:#251E49;}
	.st13{fill:none;stroke:#9B7E3F;stroke-width:0.9485;stroke-miterlimit:10;}
</style>
<path class="st0" d="M332,384.1H26.4c-6.6,0-12-5.4-12-12V29.3c0-6.6,5.4-12,12-12H332c6.6,0,12,5.4,12,12v342.8
	C344,378.7,338.6,384.1,332,384.1z"/>
<g>
	<g>
		<path class="st8" d="M97.4,253.5h1.2v9h-14v-8.9h1.2v7.5h5.1v-6.6H92v6.6h5.4V253.5z"/>
		<path class="st8" d="M84.6,242l6.1-4.4l-6.1-4.4v-1.5l7.1,5.1l6.9-5v1.5l-5.9,4.2l5.9,4.2v1.5l-6.9-5l-7.1,5.1V242z"/>
		<path class="st8" d="M98.6,220.9h-14v-5.6c0-0.6,0.1-1.1,0.4-1.6c0.3-0.5,0.6-0.9,1-1.3c0.4-0.4,0.9-0.6,1.4-0.8
			c0.5-0.2,1.1-0.3,1.6-0.3c0.8,0,1.5,0.2,2.2,0.5c0.7,0.3,1.2,0.8,1.6,1.4c0.4,0.6,0.6,1.3,0.6,2v4.4h5.2V220.9z M92.2,219.6v-4.3
			c0-0.5-0.2-1-0.5-1.4c-0.3-0.4-0.7-0.7-1.2-0.9c-0.5-0.2-1-0.3-1.6-0.3c-0.6,0-1.1,0.1-1.6,0.4c-0.5,0.3-0.9,0.6-1.2,1
			c-0.3,0.4-0.4,0.9-0.4,1.4v4.2H92.2z"/>
		<path class="st8" d="M98.6,200h-14v-1.3h12.8v-7.8h1.2V200z"/>
		<path class="st8" d="M98.9,175.3c-0.1,0.9-0.3,1.8-0.8,2.5c-0.4,0.7-1,1.4-1.7,1.9c-0.7,0.5-1.5,0.9-2.4,1.1
			c-0.9,0.2-1.7,0.3-2.6,0.3c-0.9-0.1-1.8-0.3-2.6-0.7c-0.8-0.4-1.5-0.9-2.2-1.5c-0.6-0.6-1.1-1.3-1.4-2.1c-0.3-0.8-0.5-1.6-0.4-2.5
			c0.1-0.9,0.3-1.8,0.8-2.5c0.5-0.7,1.1-1.4,1.8-1.9c0.7-0.5,1.5-0.9,2.4-1.1c0.9-0.2,1.7-0.3,2.6-0.3c0.9,0.1,1.8,0.3,2.6,0.7
			c0.8,0.4,1.5,0.9,2.2,1.5c0.6,0.6,1.1,1.3,1.4,2.1C98.8,173.5,99,174.4,98.9,175.3z M91.5,179.7c0.8,0.1,1.5,0,2.2-0.2
			c0.7-0.2,1.4-0.5,1.9-0.9c0.6-0.4,1-0.9,1.4-1.5c0.4-0.6,0.6-1.2,0.6-2c0.1-0.8-0.1-1.5-0.4-2.1c-0.3-0.6-0.7-1.2-1.2-1.7
			c-0.5-0.5-1.1-0.8-1.8-1.1c-0.7-0.3-1.4-0.4-2.1-0.5c-0.8-0.1-1.5,0-2.2,0.2c-0.7,0.2-1.4,0.5-1.9,0.9c-0.6,0.4-1.1,0.9-1.4,1.5
			c-0.4,0.6-0.6,1.2-0.6,2c-0.1,0.8,0.1,1.5,0.3,2.1c0.3,0.6,0.7,1.2,1.2,1.7c0.5,0.5,1.1,0.9,1.8,1.1
			C90,179.5,90.7,179.7,91.5,179.7z"/>
		<path class="st8" d="M101.7,158.6l-13.2-4.8l2-5.3c0.2-0.5,0.5-1,0.9-1.4c0.4-0.4,0.9-0.6,1.4-0.8c0.5-0.2,1.1-0.3,1.6-0.3
			c0.6,0,1.1,0.1,1.6,0.3c0.6,0.2,1.2,0.6,1.7,1c0.5,0.4,0.8,0.9,1.1,1.5c0.2,0.6,0.3,1.1,0.2,1.8l6.2-1.2l-0.5,1.4l-5.9,1.2
			l-1.4,3.7l4.9,1.8L101.7,158.6z M96.2,155.1l1.5-4.1c0.2-0.5,0.2-1,0-1.5c-0.1-0.5-0.4-0.9-0.8-1.3c-0.4-0.4-0.8-0.7-1.4-0.8
			c-0.5-0.2-1.1-0.3-1.6-0.2c-0.5,0.1-1,0.2-1.4,0.5c-0.4,0.3-0.7,0.7-0.9,1.1l-1.5,4L96.2,155.1z"/>
		<path class="st8" d="M114.5,131.8l1,0.7l-5.2,7.4l-11.4-8.1l5.1-7.2l1,0.7l-4.4,6.1l4.1,2.9l3.8-5.4l1,0.7l-3.8,5.4l4.4,3.1
			L114.5,131.8z"/>
		<path class="st4" d="M122.7,125.1l-1.9-2.1l1.5-1.4l1.9,2.1L122.7,125.1z"/>
		<path class="st8" d="M140.2,111.2l0.6,1.1l-7.8,4.6l-7.1-12.1l7.6-4.5l0.6,1.1l-6.5,3.8l2.6,4.4l5.7-3.3l0.6,1l-5.7,3.3l2.7,4.6
			L140.2,111.2z"/>
		<path class="st8" d="M162.1,105.2l-2.7-11.1l-2.6,9.8l-0.8,0.2l-6.8-7.5l2.7,11.1l-1.3,0.3l-3.3-13.6l1.3-0.3l7.4,8.1l2.9-10.6
			l1.3-0.3l3.3,13.6L162.1,105.2z"/>
		<path class="st8" d="M185.2,101.1c0,0.7-0.2,1.3-0.6,1.8c-0.4,0.5-0.9,0.9-1.4,1.2s-1.2,0.4-1.9,0.4l-6.3-0.4l0.8-14l6.5,0.4
			c0.6,0,1.2,0.2,1.6,0.6c0.4,0.4,0.8,0.8,1,1.4c0.2,0.6,0.3,1.1,0.3,1.7c0,0.7-0.2,1.3-0.6,1.9c-0.4,0.6-0.9,1-1.5,1.2
			c0.8,0.3,1.3,0.8,1.7,1.4C185.1,99.5,185.3,100.3,185.2,101.1z M183.9,100.8c0-0.5,0-0.9-0.2-1.3c-0.2-0.4-0.4-0.8-0.8-1
			c-0.3-0.3-0.7-0.4-1.2-0.4l-5.1-0.3l-0.3,5.3l5,0.3c0.5,0,0.9-0.1,1.3-0.3c0.4-0.2,0.7-0.5,0.9-0.9
			C183.8,101.7,183.9,101.3,183.9,100.8z M177,91.4l-0.3,5.2l4.6,0.3c0.4,0,0.8-0.1,1.2-0.3c0.4-0.2,0.6-0.5,0.9-0.9
			c0.2-0.4,0.3-0.8,0.4-1.2c0-0.5,0-0.9-0.2-1.3c-0.2-0.4-0.4-0.7-0.7-1c-0.3-0.3-0.7-0.4-1.1-0.4L177,91.4z"/>
		<path class="st8" d="M203.7,94.9l1.1,0.4l0.8,15.1l-1.3-0.5l-0.2-4.7l-5.8-2l-3,3.6l-1.3-0.5L203.7,94.9z M204,104l-0.3-7.4
			l-4.7,5.7L204,104z"/>
		<path class="st8" d="M214.5,115.1l7.9-11.6l4.7,3.2c0.5,0.3,0.8,0.7,1.1,1.2c0.3,0.5,0.4,1,0.5,1.6c0.1,0.6,0,1.1-0.1,1.6
			c-0.1,0.5-0.4,1-0.7,1.5c-0.4,0.6-0.8,1-1.4,1.4c-0.5,0.4-1.1,0.6-1.7,0.7c-0.6,0.1-1.2,0-1.8-0.2l-0.3,6.3l-1.2-0.8l0.3-6.1
			l-3.3-2.2l-2.9,4.3L214.5,115.1z M219.2,110.6l3.6,2.5c0.4,0.3,0.9,0.4,1.4,0.4c0.5,0,1-0.2,1.4-0.5c0.5-0.3,0.8-0.7,1.2-1.1
			c0.3-0.5,0.5-1,0.6-1.5c0.1-0.5,0-1-0.2-1.5c-0.2-0.5-0.5-0.9-0.9-1.1l-3.5-2.4L219.2,110.6z"/>
		<path class="st8" d="M230.5,127.9l10.7-9.1l0.9,1l-6.2,5.3l11,0.3l0.9,1.1l-8.3-0.2l-2.3,9.5l-1-1.1l2-8.5l-3.7-0.2l-3.3,2.8
			L230.5,127.9z"/>
		<path class="st4" d="M242.2,144.1l2.5-1.3l1,1.8l-2.5,1.3L242.2,144.1z"/>
		<path class="st8" d="M251.2,164.5l-1.2,0.3l-2.4-8.7l13.5-3.8l2.4,8.5l-1.2,0.3l-2-7.3l-4.9,1.4l1.8,6.3l-1.1,0.3l-1.8-6.3
			l-5.2,1.4L251.2,164.5z"/>
		<path class="st8" d="M263,176.8h-11.5v-1.3h14v1.1l-11.7,8.8h11.7v1.3h-14v-1.2L263,176.8z"/>
		<path class="st8" d="M253.4,198.1c-0.2,0.3-0.4,0.6-0.5,1.1c-0.1,0.4-0.2,0.9-0.2,1.5c0,0.7,0.1,1.2,0.3,1.6
			c0.2,0.4,0.6,0.7,1,0.9c0.5,0.2,1,0.4,1.7,0.4c0.7,0.1,1.5,0.1,2.4,0.1h7.3v1.3h-7.1c-1,0-2-0.1-2.9-0.2s-1.6-0.3-2.2-0.6
			c-0.6-0.3-1.1-0.7-1.5-1.3c-0.3-0.6-0.5-1.3-0.5-2.3c0-0.6,0.1-1.2,0.2-1.6c0.1-0.5,0.4-0.9,0.7-1.3L253.4,198.1z"/>
		<path class="st8" d="M251.4,222.8c0-0.9,0.2-1.8,0.6-2.6s0.9-1.4,1.6-2c0.7-0.6,1.4-1,2.3-1.3c0.8-0.3,1.7-0.5,2.6-0.5
			c0.9,0,1.8,0.2,2.7,0.5c0.9,0.3,1.6,0.8,2.3,1.3c0.7,0.6,1.2,1.2,1.6,2c0.4,0.8,0.6,1.6,0.6,2.5c0,0.9-0.2,1.8-0.6,2.6
			c-0.4,0.8-1,1.4-1.6,2c-0.7,0.5-1.4,1-2.3,1.3c-0.8,0.3-1.7,0.5-2.6,0.5c-0.9,0-1.8-0.2-2.7-0.5c-0.8-0.3-1.6-0.8-2.3-1.3
			c-0.7-0.6-1.2-1.2-1.6-2C251.6,224.5,251.4,223.7,251.4,222.8z M258.5,217.8c-0.8,0-1.5,0.1-2.2,0.4c-0.7,0.2-1.3,0.6-1.9,1
			c-0.5,0.4-1,1-1.3,1.6c-0.3,0.6-0.5,1.3-0.5,2c0,0.8,0.2,1.5,0.5,2.1c0.3,0.6,0.8,1.1,1.3,1.6c0.6,0.4,1.2,0.8,1.9,1
			c0.7,0.2,1.4,0.3,2.1,0.3c0.8,0,1.5-0.1,2.2-0.4s1.3-0.6,1.9-1s1-1,1.3-1.6c0.3-0.6,0.5-1.3,0.5-2c0-0.8-0.2-1.4-0.5-2.1
			c-0.3-0.6-0.8-1.1-1.3-1.6c-0.6-0.4-1.2-0.8-1.9-1C260,217.9,259.3,217.8,258.5,217.8z"/>
		<path class="st8" d="M265.6,239.8l-7.5,4.4l7.5,4.4v1.4l-8.8-5.2h-5.2v-1.3h5.3l8.8-5.2V239.8z"/>
		<path class="st8" d="M251.5,261.2h2.2v1.3h-2.2V261.2z M256,261.2h9.6v1.3H256V261.2z"/>
	</g>
</g>
<g>
	<path class="st4" d="M91.4,301c-1.4,0-2.8-0.3-4-0.8c-1.3-0.5-2.4-1.2-3.3-2.1c-1-0.9-1.7-1.9-2.2-3.1c-0.5-1.2-0.8-2.5-0.8-3.8
		c0-1.4,0.3-2.7,0.8-3.9c0.5-1.2,1.3-2.2,2.2-3.1c1-0.9,2.1-1.6,3.3-2.1c1.3-0.5,2.6-0.8,4-0.8c1.2,0,2.3,0.2,3.3,0.5
		c1.1,0.3,2,0.8,2.7,1.3l-1.6,3.2c-0.5-0.4-1.1-0.7-1.9-1c-0.7-0.2-1.5-0.3-2.3-0.3c-0.9,0-1.8,0.2-2.6,0.5s-1.5,0.7-2.1,1.3
		c-0.6,0.6-1.1,1.2-1.4,2c-0.3,0.8-0.5,1.6-0.5,2.4c0,0.9,0.2,1.7,0.5,2.4c0.3,0.8,0.8,1.4,1.4,2c0.6,0.6,1.3,1,2.1,1.3
		s1.7,0.5,2.6,0.5c0.8,0,1.6-0.1,2.3-0.3c0.7-0.2,1.4-0.5,1.9-1l1.6,3.2c-0.7,0.5-1.6,0.9-2.7,1.3C93.7,300.9,92.6,301,91.4,301z"/>
	<path class="st4" d="M102.2,300.7v-19h6.5c1.3,0,2.4,0.2,3.4,0.7c1,0.5,1.7,1.1,2.2,2s0.8,1.9,0.8,3.1c0,0.9-0.2,1.8-0.5,2.6
		c-0.3,0.8-0.8,1.4-1.5,1.9c-0.6,0.5-1.4,0.9-2.3,1.2l6.2,7.6h-4.7l-5.5-7.2h-0.9v7.2H102.2z M105.9,290.4h1.6c0.8,0,1.4-0.1,2-0.3
		c0.5-0.2,1-0.6,1.2-1c0.3-0.4,0.4-0.9,0.4-1.6c0-0.9-0.3-1.6-0.9-2.1c-0.6-0.5-1.5-0.7-2.7-0.7h-1.6V290.4z"/>
	<path class="st4" d="M128.2,301c-2.4,0-4.2-0.6-5.4-1.8c-1.2-1.2-1.8-3-1.8-5.3v-12.3h3.7v11.2c0,1.6,0.3,2.8,0.8,3.5
		c0.5,0.7,1.4,1.1,2.7,1.1c1.2,0,2.1-0.4,2.7-1.1c0.5-0.7,0.8-1.9,0.8-3.5v-11.2h3.7v12.3c0,2.4-0.6,4.1-1.8,5.3
		C132.4,300.4,130.6,301,128.2,301z"/>
	<path class="st4" d="M142.1,300.7v-19h3.7v19H142.1z"/>
	<path class="st4" d="M157.2,301c-0.9,0-1.7-0.1-2.4-0.3c-0.7-0.2-1.4-0.4-2-0.7c-0.6-0.3-1.1-0.6-1.5-0.9c-0.4-0.3-0.8-0.6-1-0.8
		l1.9-3.1c0.3,0.2,0.6,0.5,0.9,0.7c0.4,0.3,0.7,0.5,1.2,0.8c0.4,0.3,0.9,0.5,1.4,0.6c0.5,0.2,1.1,0.2,1.6,0.2c0.5,0,1-0.1,1.4-0.2
		c0.4-0.2,0.7-0.4,1-0.8c0.2-0.3,0.4-0.8,0.4-1.3c0-0.4-0.1-0.8-0.3-1.2c-0.2-0.3-0.5-0.6-0.9-0.9c-0.4-0.3-0.8-0.5-1.4-0.8
		c-0.5-0.3-1.2-0.5-1.9-0.8c-0.5-0.2-1-0.5-1.5-0.8c-0.5-0.3-0.9-0.6-1.2-1c-0.4-0.4-0.6-0.8-0.9-1.3c-0.2-0.5-0.3-1.1-0.3-1.7
		c0-0.7,0.1-1.4,0.4-2.1c0.3-0.7,0.7-1.3,1.3-1.8c0.5-0.5,1.2-0.9,1.9-1.2c0.7-0.3,1.6-0.5,2.5-0.5c0.7,0,1.4,0.1,2.1,0.3
		c0.7,0.2,1.3,0.4,1.9,0.7c0.6,0.3,1.1,0.6,1.5,1l-1.6,2.9c-0.3-0.3-0.7-0.5-1.1-0.8c-0.4-0.2-0.9-0.4-1.3-0.6
		c-0.5-0.1-1-0.2-1.4-0.2c-0.5,0-1,0.1-1.4,0.3c-0.4,0.2-0.7,0.4-0.9,0.8c-0.2,0.3-0.3,0.7-0.3,1.1c0,0.3,0.1,0.6,0.2,0.8
		c0.1,0.2,0.3,0.4,0.6,0.6c0.2,0.2,0.5,0.3,0.9,0.5c0.3,0.1,0.7,0.3,1.1,0.5c0.9,0.4,1.7,0.7,2.4,1.1c0.7,0.4,1.3,0.8,1.9,1.2
		c0.5,0.4,0.9,1,1.2,1.6c0.3,0.6,0.4,1.3,0.4,2.1c0,1.2-0.3,2.3-0.9,3.1c-0.6,0.9-1.4,1.5-2.4,2C159.8,300.8,158.6,301,157.2,301z"
		/>
	<path class="st4" d="M169.7,300.7v-19h10.6v3.3h-6.8v4.6h6.6v3.3h-6.6v4.6h6.8v3.3H169.7z"/>
	<path class="st4" d="M193.6,300.7l1.9-19h4l4.5,11.9l4.5-11.9h4l1.9,19h-3.7l-1.2-12.3l-4.3,11.8h-2.3l-4.3-11.8l-1.2,12.3H193.6z"
		/>
	<path class="st4" d="M218.1,300.7l7.6-19h3.5l7.6,19h-4l-1.6-4.3h-7.5l-1.6,4.3H218.1z M225,293.1h4.9l-2.5-6.4L225,293.1z"/>
	<path class="st4" d="M242.9,300.7V285h-4.8v-3.3h13.4v3.3h-4.8v15.7H242.9z"/>
	<path class="st4" d="M256.3,300.7v-19h10.6v3.3H260v4.6h6.6v3.3H260v4.6h6.8v3.3H256.3z"/>
</g>
<path class="st1" d="M220.4,160.1c0,0.1-0.1,0.1-0.1,0.2C220.4,160.1,220.4,160.1,220.4,160.1z"/>
<path class="st4" d="M208.3,195.6c-0.2,10,0.1,15.1-7.8,18.9c0,0,1.7,12.4-8,14.9c-4.3,1.1-10.8,0.2-15-3.6l0.2-45.5
	c3.6,0.2,9,0.6,10.7-0.6c2-1.6,11.3,4.1,11.3,4.1c3.9-6-3-11.2-3-11.2h-15.3c3.7-2.3,6.1-6.3,6.1-10.9c0-7.1-5.8-12.9-12.9-12.9
	s-12.9,5.8-12.9,12.9c0,4.6,2.4,8.7,6.1,10.9h-18.3c0,0-6.9,5.2-3,11.2c0,0,9.2-5.6,11.3-4.1c2,1.5,10,0.5,12.8,0.5l0.2,45.4
	c-4,3.9-12,5.1-17.2,3.7c-9.8-2.6-8-14.9-8-14.9c-7.9-3.8-7.6-8.9-7.8-18.9c0,0-12.9,21.5-4.8,33.5c8.1,12,35.8,13,40.1,27
	c4.3-14,32-15,40.1-27C221.2,217.1,208.3,195.6,208.3,195.6z M174.5,166.7c-3,0-5.4-2.4-5.4-5.4c0-3,2.4-5.4,5.4-5.4
	c3,0,5.4,2.4,5.4,5.4C179.9,164.3,177.5,166.7,174.5,166.7z"/>
<path class="st9" d="M228.7,175.7l-7.7,10.6c-5-1.7-10.4-2.9-16-3.6c-0.1,0-0.2,0-0.2,0c-0.2,0-0.3,0-0.5-0.1
	c1.5-5.8-2.6-10.9-5.4-13l-1-0.8h-8.2c1-2.2,1.6-4.6,1.6-7.1c0-9.2-7.5-16.7-16.7-16.7c-9.2,0-16.7,7.5-16.7,16.7
	c0,2.5,0.6,4.9,1.6,7.1h-11.3l-1,0.8c-2.9,2.2-7.2,7.5-5.3,13.4c-0.2,0-0.4,0-0.6,0.1c-0.2,0-0.4,0-0.5,0.1
	c-4.4,0.7-8.7,1.7-12.7,3.1l-7.7-10.6c-2.3-3.2-1.2-7.7,2.2-9.4l49.5-24.1c1.6-0.8,3.5-0.8,5.1,0l49.5,24.1
	C229.9,167.9,231,172.5,228.7,175.7z"/>
</svg>
